<?xml version="1.0" encoding="UTF-8"?>
<!-- Created with Inkscape (http://www.inkscape.org/) -->
<svg preserveAspectRatio="xMinYMin meet" width="20.5mm" height="8.95mm" version="1.1" viewBox="0 0 20.5 8.95" xmlns="http://www.w3.org/2000/svg">
 <g transform="translate(-5.8206e-7 .054408)">
  <path transform="matrix(.20651 0 0 .19572 4.1487 2.366)" d="m31.003-0.4429c-0.0074 0.53295-0.72205 0.25296-0.88579-0.012303-0.44372-0.71884 0.22107-1.5504 0.9104-1.7593 1.233-0.37371 2.4006 0.63446 2.6328 1.8085 0.34068 1.7229-1.0499 3.2661-2.7066 3.5063-2.2082 0.32006-4.1375-1.4655-4.3797-3.6047-0.30482-2.6919 1.8811-5.0118 4.5028-5.2532 3.1752-0.29236 5.8878 2.2967 6.1267 5.4009 0.28152 3.6581-2.7123 6.7649-6.299 7.0002-4.1409 0.27171-7.6426-3.1279-7.8737-7.1971-0.26258-4.6236 3.5435-8.5208 8.0951-8.7472 5.1063-0.25393 9.3994 3.9591 9.6207 8.9932 0.24563 5.5889-4.3746 10.278-9.8913 10.494" fill="none" stroke="#000"/>
  <path transform="matrix(-.20592 -.015601 .014786 -.19516 16.723 6.8291)" d="m31.003-0.4429c-0.0074 0.53295-0.72205 0.25296-0.88579-0.012303-0.44372-0.71884 0.22107-1.5504 0.9104-1.7593 1.233-0.37371 2.4006 0.63446 2.6328 1.8085 0.34068 1.7229-1.0499 3.2661-2.7066 3.5063-2.2082 0.32006-4.1375-1.4655-4.3797-3.6047-0.30482-2.6919 1.8811-5.0118 4.5028-5.2532 3.1752-0.29236 5.8878 2.2967 6.1267 5.4009 0.28152 3.6581-2.7123 6.7649-6.299 7.0002-4.1409 0.27171-7.6426-3.1279-7.8737-7.1971-0.26258-4.6236 3.5435-8.5208 8.0951-8.7472 5.1063-0.25393 9.3994 3.9591 9.6207 8.9932 0.24563 5.5889-4.3746 10.278-9.8913 10.494" fill="none" stroke="#000"/>
  <g fill-rule="evenodd">
   <path d="m11.319 3.2504z" points="11.318971,3.2504368 11.318971,3.2504368 11.318971,3.2504368 " fill="#e9e9ff"/>
   <path d="m9.1872 2.9059 2.1318 0.34451z" points="9.1872062,2.9059258 11.318971,3.2504368 11.318971,3.2504368 9.1872062,2.9059258 " fill="#353564"/>
   <path d="m9.1872 2.9059 2.1318 0.34451z" points="9.1872062,2.9059258 11.318971,3.2504368 11.318971,3.2504368 9.1872062,2.9059258 " fill="#4d4d9f"/>
   <path d="m9.1872 2.9059 2.1318 0.34451z" points="9.1872062,2.9059258 11.318971,3.2504368 11.318971,3.2504368 9.1872062,2.9059258 " fill="#afafde"/>
   <path d="m9.1872 2.9059 2.1318 0.34451z" points="9.1872062,2.9059258 11.318971,3.2504368 11.318971,3.2504368 9.1872062,2.9059258 " fill="#d7d7ff"/>
   <path d="m9.1872 2.9059z" points="9.1872062,2.9059258 9.1872062,2.9059258 9.1872062,2.9059258 " fill="#8686bf"/>
  </g>
  <path d="m10.52 4.3597h-1e-6" fill="none" stroke="#000" stroke-width=".26458px"/>
  <text x="1.4034381" y="7.907753" fill="#313131" font-family="sans-serif" font-size="10.52px" stroke-width=".26301" style="line-height:1.25" xml:space="preserve"><tspan x="1.4034381" y="7.907753" fill="#313131" font-family="'Cascadia Code'" font-weight="bold" stroke-width=".26301">G K</tspan></text>
  <rect x="5.9624" y="2.1161" width=".44457" height=".33996" fill="#313131" stroke-width=".26458"/>
  <path d="m1.5168 8.2877 5.7794-0.052302" fill="none" opacity=".9" stroke="#000" stroke-width=".26458px"/>
  <path d="m13.978 8.2354 5.7794-0.052302" fill="none" opacity=".9" stroke="#000" stroke-width=".26458px"/>
 </g>
 <g transform="translate(-61.273 -77.8)">
  <text x="62.281452" y="85.783821" fill="#000000" font-family="sans-serif" font-size="10.52px" stroke-width=".26301" style="line-height:1.25" xml:space="preserve"><tspan x="62.281452" y="85.783821" font-family="'Cascadia Code'" font-weight="bold" stroke-width=".26301">G K</tspan></text>
  <circle cx="71.655" cy="81.87" r=".0019511" stroke="#000" stroke-width=".26458"/>
 </g>
</svg>
